<svg width="25" height="25" viewBox="0 0 25 25" fill="none" xmlns="http://www.w3.org/2000/svg">
<path d="M9.375 18.4896C9.27083 18.4896 9.17708 18.4688 9.07292 18.4271C8.78125 18.3125 8.59375 18.0209 8.59375 17.7084V11.4584C8.59375 11.0313 8.94792 10.6771 9.375 10.6771C9.80208 10.6771 10.1562 11.0313 10.1562 11.4584V15.823L10.9063 15.073C11.2083 14.7709 11.7083 14.7709 12.0104 15.073C12.3125 15.375 12.3125 15.875 12.0104 16.1771L9.92708 18.2605C9.78125 18.4063 9.57292 18.4896 9.375 18.4896Z" fill="#292D32"/>
<path d="M9.37467 18.4895C9.17676 18.4895 8.97884 18.4166 8.82259 18.2604L6.73926 16.177C6.43717 15.875 6.43717 15.375 6.73926 15.0729C7.04134 14.7708 7.54134 14.7708 7.84343 15.0729L9.92676 17.1562C10.2288 17.4583 10.2288 17.9583 9.92676 18.2604C9.77051 18.4166 9.57259 18.4895 9.37467 18.4895Z" fill="#292D32"/>
<path d="M15.6247 23.698H9.37467C3.71842 23.698 1.30176 21.2813 1.30176 15.625V9.37504C1.30176 3.71879 3.71842 1.30212 9.37467 1.30212H14.583C15.0101 1.30212 15.3643 1.65629 15.3643 2.08337C15.3643 2.51046 15.0101 2.86462 14.583 2.86462H9.37467C4.57259 2.86462 2.86426 4.57296 2.86426 9.37504V15.625C2.86426 20.4271 4.57259 22.1355 9.37467 22.1355H15.6247C20.4268 22.1355 22.1351 20.4271 22.1351 15.625V10.4167C22.1351 9.98962 22.4893 9.63546 22.9163 9.63546C23.3434 9.63546 23.6976 9.98962 23.6976 10.4167V15.625C23.6976 21.2813 21.2809 23.698 15.6247 23.698Z" fill="#292D32"/>
<path d="M22.9163 11.1979H18.7497C15.1872 11.1979 13.8018 9.81247 13.8018 6.24997V2.0833C13.8018 1.7708 13.9893 1.47913 14.2809 1.36455C14.5726 1.23955 14.9059 1.31247 15.1351 1.53122L23.4684 9.86455C23.6872 10.0833 23.7601 10.4271 23.6351 10.7187C23.5101 11.0104 23.2288 11.1979 22.9163 11.1979ZM15.3643 3.96872V6.24997C15.3643 8.93747 16.0622 9.63538 18.7497 9.63538H21.0309L15.3643 3.96872Z" fill="#292D32"/>
</svg>
