<svg width="40" height="40" viewBox="0 0 40 40" fill="none" xmlns="http://www.w3.org/2000/svg">
<path d="M28.3335 35.4167H11.6668C10.9835 35.4167 10.4168 34.85 10.4168 34.1667C10.4168 33.4834 10.9835 32.9167 11.6668 32.9167H28.3335C33.1002 32.9167 35.4168 30.6 35.4168 25.8334V14.1667C35.4168 9.40004 33.1002 7.08337 28.3335 7.08337H11.6668C6.90016 7.08337 4.5835 9.40004 4.5835 14.1667C4.5835 14.85 4.01683 15.4167 3.3335 15.4167C2.65016 15.4167 2.0835 14.85 2.0835 14.1667C2.0835 8.08337 5.5835 4.58337 11.6668 4.58337H28.3335C34.4168 4.58337 37.9168 8.08337 37.9168 14.1667V25.8334C37.9168 31.9167 34.4168 35.4167 28.3335 35.4167Z" fill="#292D32"/>
<path d="M19.9995 21.4499C18.5995 21.4499 17.1828 21.0166 16.0995 20.1333L10.8828 15.9666C10.3495 15.5333 10.2495 14.7499 10.6828 14.2166C11.1161 13.6833 11.8995 13.5833 12.4328 14.0166L17.6495 18.1833C18.9161 19.2 21.0661 19.2 22.3328 18.1833L27.5495 14.0166C28.0828 13.5833 28.8828 13.6666 29.2994 14.2166C29.7328 14.7499 29.6495 15.55 29.0995 15.9666L23.8828 20.1333C22.8161 21.0166 21.3995 21.4499 19.9995 21.4499Z" fill="#292D32"/>
<path d="M13.3335 28.75H3.3335C2.65016 28.75 2.0835 28.1833 2.0835 27.5C2.0835 26.8167 2.65016 26.25 3.3335 26.25H13.3335C14.0168 26.25 14.5835 26.8167 14.5835 27.5C14.5835 28.1833 14.0168 28.75 13.3335 28.75Z" fill="#292D32"/>
<path d="M8.3335 22.0834H3.3335C2.65016 22.0834 2.0835 21.5167 2.0835 20.8334C2.0835 20.15 2.65016 19.5834 3.3335 19.5834H8.3335C9.01683 19.5834 9.5835 20.15 9.5835 20.8334C9.5835 21.5167 9.01683 22.0834 8.3335 22.0834Z" fill="#292D32"/>
</svg>
