<svg width="30" height="30" viewBox="0 0 30 30" fill="none" xmlns="http://www.w3.org/2000/svg">
<path d="M20.4752 28.4376H4.05015C2.86265 28.4376 1.76266 27.8876 1.05016 26.9251C0.325159 25.9501 0.11267 24.725 0.475169 23.5625L5.73766 6.64999C6.21266 5.07499 7.66268 4 9.31268 4H24.6877C26.2002 4 27.5627 4.90011 28.1377 6.30011C28.4502 7.02511 28.5127 7.85013 28.3252 8.66263L24.1127 25.575C23.7127 27.2625 22.2127 28.4376 20.4752 28.4376ZM9.32515 5.88751C8.51265 5.88751 7.77516 6.42509 7.53766 7.21259L2.27517 24.1251C2.10017 24.7126 2.20016 25.3251 2.57516 25.8251C2.92516 26.3001 3.47516 26.5751 4.06266 26.5751H20.4877C21.3502 26.5751 22.1002 25.9876 22.3002 25.1501L26.5127 8.22501C26.6127 7.81251 26.5877 7.40007 26.4252 7.03757C26.1252 6.32507 25.4627 5.875 24.7002 5.875H9.32515V5.88751Z" fill="#292D32"/>
<path d="M25.975 28.4377H20C19.4875 28.4377 19.0625 28.0127 19.0625 27.5002C19.0625 26.9877 19.4875 26.5627 20 26.5627H25.975C26.4875 26.5627 26.9625 26.3502 27.3125 25.9752C27.6625 25.6002 27.8375 25.1003 27.8 24.5878L26.5625 7.56276C26.525 7.05026 26.9125 6.6002 27.425 6.5627C27.9375 6.5377 28.3875 6.91263 28.425 7.42513L29.6625 24.4503C29.7375 25.4753 29.375 26.5003 28.675 27.2503C27.9875 28.0128 27 28.4377 25.975 28.4377Z" fill="#292D32"/>
<path d="M12.1002 8.91239C12.0252 8.91239 11.9502 8.89986 11.8752 8.88736C11.3752 8.76236 11.0627 8.26232 11.1877 7.74982L12.4877 2.34989C12.6127 1.84989 13.1127 1.53733 13.6252 1.66233C14.1252 1.78733 14.4377 2.28737 14.3127 2.79987L13.0127 8.19995C12.9127 8.62495 12.5252 8.91239 12.1002 8.91239Z" fill="#292D32"/>
<path d="M20.4753 8.92517C20.4128 8.92517 20.3378 8.92514 20.2753 8.90014C19.7753 8.78764 19.4503 8.28762 19.5503 7.78762L20.7253 2.36267C20.8378 1.85017 21.3378 1.53772 21.8378 1.63772C22.3378 1.73772 22.6628 2.25009 22.5628 2.75009L21.3878 8.1752C21.3003 8.6252 20.9128 8.92517 20.4753 8.92517Z" fill="#292D32"/>
<path d="M19.625 15.9375H9.625C9.1125 15.9375 8.6875 15.5125 8.6875 15C8.6875 14.4875 9.1125 14.0625 9.625 14.0625H19.625C20.1375 14.0625 20.5625 14.4875 20.5625 15C20.5625 15.5125 20.1375 15.9375 19.625 15.9375Z" fill="#292D32"/>
<path d="M18.375 20.9375H8.375C7.8625 20.9375 7.4375 20.5125 7.4375 20C7.4375 19.4875 7.8625 19.0625 8.375 19.0625H18.375C18.8875 19.0625 19.3125 19.4875 19.3125 20C19.3125 20.5125 18.8875 20.9375 18.375 20.9375Z" fill="#292D32"/>
</svg>
