<svg width="30" height="30" viewBox="0 0 30 30" fill="none" xmlns="http://www.w3.org/2000/svg">
<path d="M20 28.4375H3.75C2.55 28.4375 1.5625 27.45 1.5625 26.25V10C1.5625 4.475 4.475 1.5625 10 1.5625H20C25.525 1.5625 28.4375 4.475 28.4375 10V20C28.4375 25.525 25.525 28.4375 20 28.4375ZM10 3.4375C5.525 3.4375 3.4375 5.525 3.4375 10V26.25C3.4375 26.425 3.575 26.5625 3.75 26.5625H20C24.475 26.5625 26.5625 24.475 26.5625 20V10C26.5625 5.525 24.475 3.4375 20 3.4375H10Z" fill="#292D32"/>
<path d="M21.25 12.8125H8.75C8.2375 12.8125 7.8125 12.3875 7.8125 11.875C7.8125 11.3625 8.2375 10.9375 8.75 10.9375H21.25C21.7625 10.9375 22.1875 11.3625 22.1875 11.875C22.1875 12.3875 21.7625 12.8125 21.25 12.8125Z" fill="#292D32"/>
<path d="M17.5 19.0625H8.75C8.2375 19.0625 7.8125 18.6375 7.8125 18.125C7.8125 17.6125 8.2375 17.1875 8.75 17.1875H17.5C18.0125 17.1875 18.4375 17.6125 18.4375 18.125C18.4375 18.6375 18.0125 19.0625 17.5 19.0625Z" fill="#292D32"/>
</svg>
