<svg width="30" height="30" viewBox="0 0 30 30" fill="none" xmlns="http://www.w3.org/2000/svg">
<path d="M24.9997 14.6876H4.9997C4.7122 14.6876 4.4497 14.5626 4.2747 14.3376C4.0997 14.1251 4.0247 13.8251 4.0872 13.5501L5.4997 6.8001C5.9622 4.6126 6.8997 2.6001 10.6122 2.6001H19.3997C23.1122 2.6001 24.0497 4.6251 24.5122 6.8001L25.9247 13.5626C25.9872 13.8376 25.9122 14.1251 25.7372 14.3501C25.5497 14.5626 25.2872 14.6876 24.9997 14.6876ZM6.1497 12.8126H23.8372L22.6622 7.1876C22.3122 5.5501 21.8997 4.4751 19.3872 4.4751H10.6122C8.0997 4.4751 7.6872 5.5501 7.3372 7.1876L6.1497 12.8126Z" fill="#292D32"/>
<path d="M24.95 28.4375H22.6C20.575 28.4375 20.1875 27.275 19.9375 26.5125L19.6875 25.7625C19.3625 24.8125 19.325 24.6875 18.2 24.6875H11.8C10.675 24.6875 10.6 24.9 10.3125 25.7625L10.0625 26.5125C9.79999 27.2875 9.42499 28.4375 7.39999 28.4375H5.04999C4.06249 28.4375 3.11249 28.025 2.44999 27.3C1.79999 26.5875 1.48749 25.6375 1.57499 24.6875L2.27499 17.075C2.46249 15.0125 3.01249 12.8125 7.02499 12.8125H22.975C26.9875 12.8125 27.525 15.0125 27.725 17.075L28.425 24.6875C28.5125 25.6375 28.2 26.5875 27.55 27.3C26.8875 28.025 25.9375 28.4375 24.95 28.4375ZM11.8 22.8125H18.2C20.475 22.8125 21.0125 23.825 21.4625 25.15L21.725 25.925C21.9375 26.5625 21.9375 26.575 22.6125 26.575H24.9625C25.425 26.575 25.8625 26.3875 26.175 26.05C26.475 25.725 26.6125 25.3125 26.575 24.875L25.875 17.2625C25.7125 15.575 25.5125 14.7 23 14.7H7.02499C4.49999 14.7 4.29999 15.575 4.14999 17.2625L3.44999 24.875C3.41249 25.3125 3.54999 25.725 3.84999 26.05C4.14999 26.3875 4.59999 26.575 5.06249 26.575H7.41249C8.08748 26.575 8.08748 26.5625 8.29998 25.9375L8.54999 25.175C8.86249 24.175 9.32498 22.8125 11.8 22.8125Z" fill="#292D32"/>
<path d="M4.99902 10.9375H3.74902C3.23652 10.9375 2.81152 10.5125 2.81152 10C2.81152 9.4875 3.23652 9.0625 3.74902 9.0625H4.99902C5.51152 9.0625 5.93652 9.4875 5.93652 10C5.93652 10.5125 5.51152 10.9375 4.99902 10.9375Z" fill="#292D32"/>
<path d="M26.249 10.9375H24.999C24.4865 10.9375 24.0615 10.5125 24.0615 10C24.0615 9.4875 24.4865 9.0625 24.999 9.0625H26.249C26.7615 9.0625 27.1865 9.4875 27.1865 10C27.1865 10.5125 26.7615 10.9375 26.249 10.9375Z" fill="#292D32"/>
<path d="M14.999 7.1875C14.4865 7.1875 14.0615 6.7625 14.0615 6.25V3.75C14.0615 3.2375 14.4865 2.8125 14.999 2.8125C15.5115 2.8125 15.9365 3.2375 15.9365 3.75V6.25C15.9365 6.7625 15.5115 7.1875 14.999 7.1875Z" fill="#292D32"/>
<path d="M16.874 7.1875H13.124C12.6115 7.1875 12.1865 6.7625 12.1865 6.25C12.1865 5.7375 12.6115 5.3125 13.124 5.3125H16.874C17.3865 5.3125 17.8115 5.7375 17.8115 6.25C17.8115 6.7625 17.3865 7.1875 16.874 7.1875Z" fill="#292D32"/>
<path d="M11.249 19.6875H7.49902C6.98652 19.6875 6.56152 19.2625 6.56152 18.75C6.56152 18.2375 6.98652 17.8125 7.49902 17.8125H11.249C11.7615 17.8125 12.1865 18.2375 12.1865 18.75C12.1865 19.2625 11.7615 19.6875 11.249 19.6875Z" fill="#292D32"/>
<path d="M22.499 19.6875H18.749C18.2365 19.6875 17.8115 19.2625 17.8115 18.75C17.8115 18.2375 18.2365 17.8125 18.749 17.8125H22.499C23.0115 17.8125 23.4365 18.2375 23.4365 18.75C23.4365 19.2625 23.0115 19.6875 22.499 19.6875Z" fill="#292D32"/>
</svg>
