<svg width="30" height="30" viewBox="0 0 30 30" fill="none" xmlns="http://www.w3.org/2000/svg">
<path d="M20.625 28.4374H9.375C5.25 28.4374 4.6875 26.1874 4.6875 23.7499V12.7749C4.6875 12.2624 5.1125 11.8374 5.625 11.8374C6.1375 11.8374 6.5625 12.2624 6.5625 12.7749V23.7499C6.5625 25.9249 6.9375 26.5624 9.375 26.5624H20.625C23.0625 26.5624 23.4375 25.9249 23.4375 23.7499V12.7749C23.4375 12.2624 23.8625 11.8374 24.375 11.8374C24.8875 11.8374 25.3125 12.2624 25.3125 12.7749V23.7499C25.3125 26.1874 24.75 28.4374 20.625 28.4374Z" fill="#292D32"/>
<path d="M23.75 13.4375H6.25C3.225 13.4375 1.5625 11.775 1.5625 8.75V6.25C1.5625 3.225 3.225 1.5625 6.25 1.5625H23.75C26.775 1.5625 28.4375 3.225 28.4375 6.25V8.75C28.4375 11.775 26.775 13.4375 23.75 13.4375ZM6.25 3.4375C4.275 3.4375 3.4375 4.275 3.4375 6.25V8.75C3.4375 10.725 4.275 11.5625 6.25 11.5625H23.75C25.725 11.5625 26.5625 10.725 26.5625 8.75V6.25C26.5625 4.275 25.725 3.4375 23.75 3.4375H6.25Z" fill="#292D32"/>
<path d="M17.2746 18.4375H12.7246C12.2121 18.4375 11.7871 18.0125 11.7871 17.5C11.7871 16.9875 12.2121 16.5625 12.7246 16.5625H17.2746C17.7871 16.5625 18.2121 16.9875 18.2121 17.5C18.2121 18.0125 17.7871 18.4375 17.2746 18.4375Z" fill="#292D32"/>
</svg>
